# xmcd
#
# Track frame offsets:
#	150
#	10927
#	20570
#	32232
#	44700
#	55810
#	64615
#	73730
#	86642
#	98777
#	115065
#	127095
#	138342
#	149272
#	160835
#	172372
#	184507
#	204347
#	218920
#	230075
#	238857
#	250222
#	260115
#	270050
#	286317
#	299005
#	308602
#	320765
#	334836
#
# Disc length: 4645 seconds
#
# Revision: 0
# Processed by: cddbd v1.5.2PL0 Copyright (c) Steve Scherf et al.
# Submitted via: MusicWizard 7.0.2
#
DISCID=c412231d
DTITLE=Anna- Lena - Dein Herz, Das Muß Aus Gold Sein
DYEAR=1900
DGENRE=Schlager
TTITLE0=Dein Herz, Das Muß Aus Gold Sein
TTITLE1=Morgen Hast Du Keine Sorgen
TTITLE2=Doch Das Werd` Ich Dir Verzeih`n
TTITLE3=Einen Meter Nebenan
TTITLE4=Dein Glück Ist Mein Glück
TTITLE5=Oh, Mein Bräutigam
TTITLE6=Abschiednehmen Ist So Schwer
TTITLE7=Wein` Nicht Um Die And`re
TTITLE8=Zum Weinen Kein Talent
TTITLE9=Jedes Herz Braucht Eine Heimat
TTITLE10=Rosen Aus Papier
TTITLE11=Bleib` Doch Steh`n
TTITLE12=Arm Oder Reich
TTITLE13=Alle Blumen Wollen Blühen
TTITLE14=So Kalt Wie Eine Winternacht
TTITLE15=Laß Mich Geh`n
TTITLE16=Das Lied Vom Glück
TTITLE17=Das Ende Der Welt
TTITLE18=Sag` Nicht Immer Baby
TTITLE19=Wenn Zwei Sich Wie Wir Gut Versteh`n
TTITLE20=Ich Bin Leider Keine Große Dame
TTITLE21=Vergessen Ist Schwer
TTITLE22=Schön Ist Das Leben
TTITLE23=Immer Am Sonntag
TTITLE24=Wenn Du Weinst
TTITLE25=Oh, Muß Die Liebe Schön Sein
TTITLE26=Fällt Es Dir So Leicht
TTITLE27=Musik Für Einsame Mädchen
TTITLE28=Monday, Monday
EXTD=
EXTT0=
EXTT1=
EXTT2=
EXTT3=
EXTT4=
EXTT5=
EXTT6=
EXTT7=
EXTT8=
EXTT9=
EXTT10=
EXTT11=
EXTT12=
EXTT13=
EXTT14=
EXTT15=
EXTT16=
EXTT17=
EXTT18=
EXTT19=
EXTT20=
EXTT21=
EXTT22=
EXTT23=
EXTT24=
EXTT25=
EXTT26=
EXTT27=
EXTT28=
PLAYORDER=
